; NON-PLATED HOLES START AT T1
; THROUGH (PLATED) HOLES START AT T100
M48
INCH
T100C0.030000
T101C0.015748
T102C0.027559
T103C0.031497
T104C0.033944
T105C0.040000
T106C0.046111
T107C0.035000
%
T100
X003049Y017928
X004049Y017928
X005049Y017928
T101
X013800Y005070
X003960Y008910
X012840Y005310
X016920Y007230
T102
X003049Y003141
X003049Y004716
X003049Y003928
T103
X010050Y022928
X014034Y022928
X013050Y022928
X011034Y022928
T104
X015050Y004928
X016050Y005928
X016050Y007928
X015050Y007928
X015050Y005928
X015050Y006928
X016050Y006928
X016050Y004928
T105
X005380Y007506
X011380Y004506
X011380Y006506
X005880Y002506
X005380Y006506
X008880Y002506
X005380Y003506
X011380Y007506
X011380Y003506
X005380Y009506
X009880Y002506
X005380Y010506
X011380Y008506
X011380Y012506
X005380Y014506
X011380Y011506
X011380Y013506
X010880Y002506
X007880Y002506
X011380Y005506
X006880Y002506
X006530Y006956
X011380Y009506
X005380Y013506
X005380Y004506
X006530Y007956
X005380Y005506
X011380Y010506
X005380Y008506
X011380Y014506
X005380Y012506
X005380Y011506
T106
X021049Y019928
X019050Y019928
X020049Y019928
X022049Y019928
T107
X010050Y020928
X022050Y015928
X019050Y015928
X013050Y020928
X010050Y016928
X013050Y016928
X019050Y011928
X022050Y011928
T00
M30
