G04 MADE WITH FRITZING*
G04 WWW.FRITZING.ORG*
G04 DOUBLE SIDED*
G04 HOLES PLATED*
G04 CONTOUR ON CENTER OF CONTOUR VECTOR*
%ASAXBY*%
%FSLAX23Y23*%
%MOIN*%
%OFA0B0*%
%SFA1.0B1.0*%
%ADD10C,0.077278*%
%ADD11C,0.083889*%
%ADD12C,0.072992*%
%ADD13C,0.085000*%
%ADD14C,0.084000*%
%ADD15C,0.074000*%
%ADD16C,0.049370*%
%ADD17R,0.072992X0.072992*%
%ADD18R,0.001000X0.001000*%
%LNMASK0*%
G90*
G70*
G54D10*
X1605Y793D03*
X1605Y693D03*
X1605Y593D03*
X1605Y493D03*
X1505Y793D03*
X1505Y693D03*
X1505Y593D03*
X1505Y493D03*
G54D11*
X1905Y1993D03*
X2005Y1993D03*
X2105Y1993D03*
X2205Y1993D03*
G54D12*
X1305Y2293D03*
X1403Y2293D03*
X1005Y2293D03*
X1103Y2293D03*
G54D13*
X2205Y1193D03*
X2205Y1593D03*
X2205Y1193D03*
X2205Y1593D03*
X1005Y1693D03*
X1005Y2093D03*
X1005Y1693D03*
X1005Y2093D03*
X1305Y2093D03*
X1305Y1693D03*
X1305Y2093D03*
X1305Y1693D03*
X1905Y1193D03*
X1905Y1593D03*
X1905Y1193D03*
X1905Y1593D03*
G54D14*
X588Y251D03*
X688Y251D03*
X788Y251D03*
X888Y251D03*
X988Y251D03*
X1088Y251D03*
X538Y351D03*
X538Y451D03*
X538Y551D03*
X538Y651D03*
X538Y751D03*
X653Y696D03*
X653Y796D03*
X538Y851D03*
X538Y951D03*
X538Y1051D03*
X538Y1151D03*
X538Y1251D03*
X538Y1351D03*
X538Y1451D03*
X1138Y1451D03*
X1138Y1351D03*
X1138Y1251D03*
X1138Y1151D03*
X1138Y1051D03*
X1138Y951D03*
X1138Y851D03*
X1138Y751D03*
X1138Y651D03*
X1138Y551D03*
X1138Y451D03*
X1138Y351D03*
G54D15*
X305Y314D03*
X305Y393D03*
X305Y472D03*
G54D16*
X1380Y507D03*
X1284Y531D03*
X1692Y723D03*
X396Y891D03*
G54D17*
X1305Y2293D03*
X1005Y2293D03*
G54D18*
X300Y1833D02*
X309Y1833D01*
X400Y1833D02*
X409Y1833D01*
X500Y1833D02*
X509Y1833D01*
X295Y1832D02*
X314Y1832D01*
X395Y1832D02*
X414Y1832D01*
X495Y1832D02*
X514Y1832D01*
X292Y1831D02*
X317Y1831D01*
X392Y1831D02*
X417Y1831D01*
X492Y1831D02*
X517Y1831D01*
X289Y1830D02*
X320Y1830D01*
X389Y1830D02*
X420Y1830D01*
X489Y1830D02*
X520Y1830D01*
X287Y1829D02*
X322Y1829D01*
X387Y1829D02*
X422Y1829D01*
X487Y1829D02*
X522Y1829D01*
X285Y1828D02*
X324Y1828D01*
X385Y1828D02*
X424Y1828D01*
X485Y1828D02*
X524Y1828D01*
X284Y1827D02*
X325Y1827D01*
X384Y1827D02*
X425Y1827D01*
X484Y1827D02*
X525Y1827D01*
X282Y1826D02*
X327Y1826D01*
X382Y1826D02*
X427Y1826D01*
X482Y1826D02*
X527Y1826D01*
X281Y1825D02*
X328Y1825D01*
X381Y1825D02*
X428Y1825D01*
X481Y1825D02*
X528Y1825D01*
X279Y1824D02*
X330Y1824D01*
X379Y1824D02*
X430Y1824D01*
X479Y1824D02*
X530Y1824D01*
X278Y1823D02*
X331Y1823D01*
X378Y1823D02*
X431Y1823D01*
X478Y1823D02*
X531Y1823D01*
X277Y1822D02*
X332Y1822D01*
X377Y1822D02*
X432Y1822D01*
X477Y1822D02*
X532Y1822D01*
X276Y1821D02*
X333Y1821D01*
X376Y1821D02*
X433Y1821D01*
X476Y1821D02*
X533Y1821D01*
X275Y1820D02*
X334Y1820D01*
X375Y1820D02*
X434Y1820D01*
X475Y1820D02*
X534Y1820D01*
X274Y1819D02*
X335Y1819D01*
X374Y1819D02*
X435Y1819D01*
X474Y1819D02*
X535Y1819D01*
X274Y1818D02*
X335Y1818D01*
X374Y1818D02*
X435Y1818D01*
X474Y1818D02*
X535Y1818D01*
X273Y1817D02*
X336Y1817D01*
X373Y1817D02*
X436Y1817D01*
X473Y1817D02*
X536Y1817D01*
X272Y1816D02*
X337Y1816D01*
X372Y1816D02*
X437Y1816D01*
X472Y1816D02*
X537Y1816D01*
X271Y1815D02*
X338Y1815D01*
X371Y1815D02*
X438Y1815D01*
X471Y1815D02*
X538Y1815D01*
X271Y1814D02*
X338Y1814D01*
X371Y1814D02*
X438Y1814D01*
X471Y1814D02*
X538Y1814D01*
X270Y1813D02*
X339Y1813D01*
X370Y1813D02*
X439Y1813D01*
X470Y1813D02*
X539Y1813D01*
X270Y1812D02*
X339Y1812D01*
X370Y1812D02*
X439Y1812D01*
X470Y1812D02*
X539Y1812D01*
X269Y1811D02*
X340Y1811D01*
X369Y1811D02*
X440Y1811D01*
X469Y1811D02*
X540Y1811D01*
X269Y1810D02*
X340Y1810D01*
X369Y1810D02*
X440Y1810D01*
X469Y1810D02*
X540Y1810D01*
X268Y1809D02*
X341Y1809D01*
X368Y1809D02*
X441Y1809D01*
X468Y1809D02*
X541Y1809D01*
X268Y1808D02*
X341Y1808D01*
X368Y1808D02*
X441Y1808D01*
X468Y1808D02*
X541Y1808D01*
X267Y1807D02*
X342Y1807D01*
X367Y1807D02*
X442Y1807D01*
X467Y1807D02*
X542Y1807D01*
X267Y1806D02*
X342Y1806D01*
X367Y1806D02*
X442Y1806D01*
X467Y1806D02*
X542Y1806D01*
X267Y1805D02*
X342Y1805D01*
X367Y1805D02*
X442Y1805D01*
X467Y1805D02*
X542Y1805D01*
X267Y1804D02*
X342Y1804D01*
X367Y1804D02*
X442Y1804D01*
X467Y1804D02*
X542Y1804D01*
X266Y1803D02*
X343Y1803D01*
X366Y1803D02*
X443Y1803D01*
X466Y1803D02*
X543Y1803D01*
X266Y1802D02*
X343Y1802D01*
X366Y1802D02*
X443Y1802D01*
X466Y1802D02*
X543Y1802D01*
X266Y1801D02*
X343Y1801D01*
X366Y1801D02*
X443Y1801D01*
X466Y1801D02*
X543Y1801D01*
X266Y1800D02*
X343Y1800D01*
X366Y1800D02*
X443Y1800D01*
X466Y1800D02*
X543Y1800D01*
X266Y1799D02*
X343Y1799D01*
X365Y1799D02*
X443Y1799D01*
X465Y1799D02*
X543Y1799D01*
X265Y1798D02*
X344Y1798D01*
X365Y1798D02*
X444Y1798D01*
X465Y1798D02*
X544Y1798D01*
X265Y1797D02*
X344Y1797D01*
X365Y1797D02*
X444Y1797D01*
X465Y1797D02*
X544Y1797D01*
X265Y1796D02*
X344Y1796D01*
X365Y1796D02*
X444Y1796D01*
X465Y1796D02*
X544Y1796D01*
X265Y1795D02*
X344Y1795D01*
X365Y1795D02*
X444Y1795D01*
X465Y1795D02*
X544Y1795D01*
X265Y1794D02*
X344Y1794D01*
X365Y1794D02*
X444Y1794D01*
X465Y1794D02*
X544Y1794D01*
X265Y1793D02*
X344Y1793D01*
X365Y1793D02*
X444Y1793D01*
X465Y1793D02*
X544Y1793D01*
X265Y1792D02*
X344Y1792D01*
X365Y1792D02*
X444Y1792D01*
X465Y1792D02*
X544Y1792D01*
X265Y1791D02*
X344Y1791D01*
X365Y1791D02*
X444Y1791D01*
X465Y1791D02*
X544Y1791D01*
X265Y1790D02*
X344Y1790D01*
X365Y1790D02*
X444Y1790D01*
X465Y1790D02*
X544Y1790D01*
X265Y1789D02*
X344Y1789D01*
X365Y1789D02*
X444Y1789D01*
X465Y1789D02*
X544Y1789D01*
X265Y1788D02*
X344Y1788D01*
X365Y1788D02*
X444Y1788D01*
X465Y1788D02*
X544Y1788D01*
X266Y1787D02*
X343Y1787D01*
X366Y1787D02*
X443Y1787D01*
X466Y1787D02*
X543Y1787D01*
X266Y1786D02*
X343Y1786D01*
X366Y1786D02*
X443Y1786D01*
X466Y1786D02*
X543Y1786D01*
X266Y1785D02*
X343Y1785D01*
X366Y1785D02*
X443Y1785D01*
X466Y1785D02*
X543Y1785D01*
X266Y1784D02*
X343Y1784D01*
X366Y1784D02*
X443Y1784D01*
X466Y1784D02*
X543Y1784D01*
X266Y1783D02*
X343Y1783D01*
X366Y1783D02*
X443Y1783D01*
X466Y1783D02*
X543Y1783D01*
X267Y1782D02*
X342Y1782D01*
X367Y1782D02*
X442Y1782D01*
X467Y1782D02*
X542Y1782D01*
X267Y1781D02*
X342Y1781D01*
X367Y1781D02*
X442Y1781D01*
X467Y1781D02*
X542Y1781D01*
X267Y1780D02*
X342Y1780D01*
X367Y1780D02*
X442Y1780D01*
X467Y1780D02*
X542Y1780D01*
X268Y1779D02*
X341Y1779D01*
X368Y1779D02*
X441Y1779D01*
X468Y1779D02*
X541Y1779D01*
X268Y1778D02*
X341Y1778D01*
X368Y1778D02*
X441Y1778D01*
X468Y1778D02*
X541Y1778D01*
X269Y1777D02*
X340Y1777D01*
X369Y1777D02*
X440Y1777D01*
X469Y1777D02*
X540Y1777D01*
X269Y1776D02*
X340Y1776D01*
X369Y1776D02*
X440Y1776D01*
X469Y1776D02*
X540Y1776D01*
X269Y1775D02*
X339Y1775D01*
X369Y1775D02*
X439Y1775D01*
X469Y1775D02*
X539Y1775D01*
X270Y1774D02*
X339Y1774D01*
X370Y1774D02*
X439Y1774D01*
X470Y1774D02*
X539Y1774D01*
X271Y1773D02*
X338Y1773D01*
X371Y1773D02*
X438Y1773D01*
X471Y1773D02*
X538Y1773D01*
X271Y1772D02*
X338Y1772D01*
X371Y1772D02*
X438Y1772D01*
X471Y1772D02*
X538Y1772D01*
X272Y1771D02*
X337Y1771D01*
X372Y1771D02*
X437Y1771D01*
X472Y1771D02*
X537Y1771D01*
X273Y1770D02*
X336Y1770D01*
X373Y1770D02*
X436Y1770D01*
X473Y1770D02*
X536Y1770D01*
X273Y1769D02*
X336Y1769D01*
X373Y1769D02*
X436Y1769D01*
X473Y1769D02*
X536Y1769D01*
X274Y1768D02*
X335Y1768D01*
X374Y1768D02*
X435Y1768D01*
X474Y1768D02*
X535Y1768D01*
X275Y1767D02*
X334Y1767D01*
X375Y1767D02*
X434Y1767D01*
X475Y1767D02*
X534Y1767D01*
X276Y1766D02*
X333Y1766D01*
X376Y1766D02*
X433Y1766D01*
X476Y1766D02*
X533Y1766D01*
X277Y1765D02*
X332Y1765D01*
X377Y1765D02*
X432Y1765D01*
X477Y1765D02*
X532Y1765D01*
X278Y1764D02*
X331Y1764D01*
X378Y1764D02*
X431Y1764D01*
X478Y1764D02*
X531Y1764D01*
X279Y1763D02*
X330Y1763D01*
X379Y1763D02*
X430Y1763D01*
X479Y1763D02*
X530Y1763D01*
X280Y1762D02*
X329Y1762D01*
X380Y1762D02*
X429Y1762D01*
X480Y1762D02*
X529Y1762D01*
X282Y1761D02*
X327Y1761D01*
X382Y1761D02*
X427Y1761D01*
X482Y1761D02*
X527Y1761D01*
X283Y1760D02*
X326Y1760D01*
X383Y1760D02*
X426Y1760D01*
X483Y1760D02*
X526Y1760D01*
X285Y1759D02*
X324Y1759D01*
X385Y1759D02*
X424Y1759D01*
X485Y1759D02*
X524Y1759D01*
X286Y1758D02*
X323Y1758D01*
X386Y1758D02*
X423Y1758D01*
X486Y1758D02*
X523Y1758D01*
X288Y1757D02*
X321Y1757D01*
X388Y1757D02*
X421Y1757D01*
X488Y1757D02*
X521Y1757D01*
X291Y1756D02*
X318Y1756D01*
X391Y1756D02*
X418Y1756D01*
X491Y1756D02*
X518Y1756D01*
X294Y1755D02*
X315Y1755D01*
X394Y1755D02*
X415Y1755D01*
X494Y1755D02*
X515Y1755D01*
X298Y1754D02*
X311Y1754D01*
X398Y1754D02*
X411Y1754D01*
X498Y1754D02*
X511Y1754D01*
D02*
G04 End of Mask0*
M02*